<?xml version="1.0" encoding="UTF-8"?>
<svg id="text" xmlns="http://www.w3.org/2000/svg" xmlns:xlink="http://www.w3.org/1999/xlink" viewBox="0 0 211.28 208.56">
  <defs>
    <style>
      .cls-1 {
        fill: none;
      }

      .cls-2 {
        fill: #2e3192;
        stroke: #2e3192;
        stroke-miterlimit: 10;
        stroke-width: .1px;
      }

      .cls-3 {
        fill: #2c3082;
      }

      .cls-4 {
        clip-path: url(#clippath);
      }
    </style>
    <clipPath id="clippath">
      <rect class="cls-1" x="17.21" y="26.45" width="175.38" height="175.38"/>
    </clipPath>
  </defs>
  <g class="cls-4">
    <path class="cls-3" d="M147.53,99.12v-42.38l-66.85-.03c5.52,6.66,10.44,12.47,14.75,17.41,5.71,6.54,10.91,12.28,15.6,17.21,3.65,3.83,7.45,7.52,11.24,11.21,1.3,1.27,2.6,2.54,3.9,3.81,4.89,4.81,17.4,14.33,18.33,15.06h3.03v-15.41h12.73s0,35.51,0,35.51H61.39v-20.1h66.27c-3.61-4.22-8.77-9.77-15.55-16.68h-38.45c-3.68,0-6.44.46-8.27,1.39-1.84.93-3.44,2.61-4.79,5.05l-6.12,10.24v26.96h112.69v-49.25h-19.64Z"/>
    <path class="cls-3" d="M51.89,110c2.13-3.12,4.26-6.39,6.38-9.81,2.13-3.42,4.21-6.86,6.24-10.33,2.03-3.47,3.82-6.67,5.37-9.6,1.55-2.93,2.8-5.49,3.77-7.69.96-2.2,1.45-3.74,1.45-4.61,0-1.95-1.65-4.59-4.93-7.91l-3.27-3.34h-24.27v64.71h.69c.83-.9,1.75-2.01,2.77-3.35,1.74-2.24,3.68-4.93,5.81-8.06"/>
    <path class="cls-3" d="M71.63,97.69c.97.1,2.42.17,4.35.22,1.93.05,4.64.07,8.13.07,3.77,0,6.92-.02,9.43-.07,2.52-.05,4.55-.12,6.1-.22,1.55-.1,2.71-.22,3.48-.37.77-.15,1.35-.32,1.74-.51l-22.78-23.44-9.58,16.7c-1.26,2.25-2.08,3.71-2.47,4.39-.39.69-.58,1.27-.58,1.76,0,.39.12.71.36.95.24.25.85.42,1.81.51"/>
  </g>
  <rect class="cls-1" x="17.21" y="26.45" width="175.38" height="175.38"/>
  <path class="cls-2" d="M153.16,15.33H56.65c-22.38,0-40.52,18.14-40.52,40.52v96.51c0,22.38,18.14,40.52,40.52,40.52h96.51c22.38,0,40.52-18.14,40.52-40.52V55.86c0-22.38-18.14-40.52-40.52-40.52ZM186.28,152.92c0,17.99-14.58,32.57-32.57,32.57H56.1c-17.99,0-32.57-14.58-32.57-32.57V55.31c0-17.99,14.58-32.57,32.57-32.57h97.61c17.99,0,32.57,14.58,32.57,32.57v97.61Z"/>
  <g>
    <path class="cls-3" d="M68.23,138.56l1.8-.27,4.52-13.18h2.29l4.56,13.33,1.36.16v1.16h-6.88v-1.16l1.71-.22-.91-2.87h-4.47l-.89,2.78,1.69.27v1.2h-4.79v-1.2ZM72.64,134.22h3.65l-1.8-5.68-1.85,5.68Z"/>
    <path class="cls-3" d="M83.66,138.72l1.22-.25c.02-1.09.02-2.45.02-3.38v-1.31c0-1.22-.02-1.67-.07-2.56l-1.36-.2v-.87l4.39-1.49.4.25.2,2.63c.62-1.89,1.89-2.87,2.98-2.87.98,0,1.76.56,1.94,1.65-.04,1.16-.69,1.83-1.58,1.83-.67,0-1.18-.33-1.71-1.05l-.13-.18c-.67.62-1.27,1.65-1.49,2.67v1.51c0,.91,0,2.2.02,3.25l1.76.38v1.05h-6.59v-1.05Z"/>
    <path class="cls-3" d="M95.22,137.01c0-.78.02-1.36.02-2.23v-4.25h-1.45v-1.31l1.65-.22,1.11-3.12h2.27l-.04,3.14h2.34v1.51h-2.34v6.23c0,1.05.47,1.51,1.14,1.51.4,0,.78-.16,1.2-.49l.56.53c-.6,1.14-1.62,1.78-3.27,1.78-2,0-3.18-.89-3.18-3.09Z"/>
    <path class="cls-3" d="M102.18,138.72l1.2-.27c.02-1.07.02-2.43.02-3.36v-1.07c0-1.22-.02-1.91-.07-2.8l-1.38-.2v-.87l4.67-1.49.38.25-.07,3.23v2.96c0,.93,0,2.32.02,3.41l1.11.22v1.05h-5.9v-1.05ZM103.25,125.25c0-1.05.85-1.78,1.89-1.78s1.89.73,1.89,1.78-.85,1.76-1.89,1.76-1.89-.73-1.89-1.76Z"/>
    <path class="cls-3" d="M109.22,138.72l1.22-.25c.02-1.14.04-2.25.04-3.38v-4.56h-1.45v-1.31l1.49-.18c.25-2,.76-3.12,1.71-4.1,1.09-1.09,2.56-1.56,3.85-1.56s2.38.4,2.67,1.58c-.02.85-.6,1.49-1.6,1.49-.76,0-1.38-.47-2-1.58l-.18-.27c-.8.85-1.07,2.07-1,4.41h2.38v1.51h-2.34v4.56c0,1.09,0,2.18.02,3.27l1.71.36v1.05h-6.54v-1.05Z"/>
    <path class="cls-3" d="M123.4,138.47c-.96,1.02-1.65,1.62-3.18,1.62-1.71,0-2.92-1-2.92-2.85,0-1.58.87-2.69,4.3-3.7.45-.13,1.07-.29,1.69-.45v-.74c0-1.98-.38-2.56-1.8-2.56-.2,0-.38,0-.6.02l-.11.98c-.04,1.47-.76,2.07-1.62,2.07-.8,0-1.31-.38-1.49-1.11.11-1.85,1.92-3.12,5.12-3.12,2.85,0,3.98,1.22,3.98,4.21v4.99c0,.45.18.65.49.65.25,0,.42-.11.67-.49l.6.4c-.53,1.2-1.33,1.67-2.67,1.67s-2.12-.58-2.45-1.6ZM121.93,138.3c.31,0,.58-.09,1.36-.62v-3.61c-.4.13-.78.27-1.05.38-1,.42-1.65,1.18-1.65,2.23,0,1.11.58,1.62,1.33,1.62Z"/>
    <path class="cls-3" d="M129.06,134.42c0-3.65,2.69-5.77,6.01-5.77,2.36,0,4.01,1.47,4.16,3.25-.24.8-.71,1.16-1.51,1.16-.87,0-1.6-.53-1.69-2.12l-.16-1.11c-.13-.02-.27-.02-.42-.02-1.27,0-2.67,1.18-2.67,4.19,0,2.56,1.25,3.98,3.12,3.98,1.07,0,1.85-.51,2.49-1.25l.78.69c-.87,1.8-2.45,2.67-4.56,2.67-3.03,0-5.54-1.94-5.54-5.68Z"/>
    <path class="cls-3" d="M141.37,137.01c0-.78.02-1.36.02-2.23v-4.25h-1.45v-1.31l1.65-.22,1.11-3.12h2.27l-.04,3.14h2.34v1.51h-2.34v6.23c0,1.05.47,1.51,1.14,1.51.4,0,.78-.16,1.2-.49l.56.53c-.6,1.14-1.62,1.78-3.27,1.78-2,0-3.18-.89-3.18-3.09Z"/>
  </g>
</svg>